<?xml version="1.0" encoding="UTF-8"?>
<!DOCTYPE svg PUBLIC "-//W3C//DTD SVG 1.1//EN" "http://www.w3.org/Graphics/SVG/1.1/DTD/svg11.dtd">
<svg xmlns="http://www.w3.org/2000/svg" version="1.1" width="31.88" height="32" style="shape-rendering:geometricPrecision; text-rendering:geometricPrecision; image-rendering:optimizeQuality; fill-rule:evenodd; clip-rule:evenodd" xmlns:xlink="http://www.w3.org/1999/xlink">
<g><path style="opacity:1" fill="#f2c13c" d="M 220.5,195.5 C 222.167,195.5 223.833,195.5 225.5,195.5C 225.666,204.173 225.5,212.84 225,221.5C 222.85,224.963 219.684,226.296 215.5,225.5C 215.5,223.833 215.5,222.167 215.5,220.5C 217.451,220.773 218.951,220.107 220,218.5C 220.412,210.63 220.579,202.963 220.5,195.5 Z"/></g>
<g><path style="opacity:1" fill="#f3c344" d="M 231.5,195.5 C 235.472,196.108 239.472,196.608 243.5,197C 247.461,201.13 247.461,205.297 243.5,209.5C 245.167,212.167 246.833,214.833 248.5,217.5C 246.579,218.641 244.579,218.808 242.5,218C 240.709,215.586 239.043,213.086 237.5,210.5C 236.52,213.086 236.187,215.753 236.5,218.5C 234.5,218.5 232.5,218.5 230.5,218.5C 230.201,210.747 230.534,203.08 231.5,195.5 Z M 236.5,200.5 C 239.906,200.994 240.906,202.661 239.5,205.5C 238.5,205.5 237.5,205.5 236.5,205.5C 236.5,203.833 236.5,202.167 236.5,200.5 Z"/></g>
<g><path style="opacity:1" fill="#f4c345" d="M 248.5,196.5 C 250.467,196.261 252.301,196.594 254,197.5C 255.403,201.876 256.903,206.21 258.5,210.5C 260.097,206.21 261.597,201.876 263,197.5C 264.699,196.594 266.533,196.261 268.5,196.5C 261.833,225.833 255.167,225.833 248.5,196.5 Z"/></g>
<g><path style="opacity:0.212" fill="#fbedc4" d="M 236.5,200.5 C 236.5,202.167 236.5,203.833 236.5,205.5C 237.5,205.5 238.5,205.5 239.5,205.5C 238.432,206.434 237.099,206.768 235.5,206.5C 235.205,204.265 235.539,202.265 236.5,200.5 Z"/></g>
</svg>
